<svg xmlns="http://www.w3.org/2000/svg" height="200" viewBox="0 96 960 960" width="200"><path d="m838.153 1010.61-80.749-79.381q-1.538.385-3.269.577-1.731.193-3.654.193H194.694q-29.596 0-50.145-20.548-20.548-20.549-20.548-50.145V304.804q0-1.923.193-3.461.192-1.539.961-3.078l-72.46-72.11 42.614-41.615 784.458 784.458-41.614 41.612ZM194.694 873.615h505.461L584.924 757.384H247.001l120-144.538L448.693 709l39.692-49.155-306-305v506.461q0 5.385 3.462 8.847 3.462 3.462 8.847 3.462Zm641.305-41.079-58.384-58.383V290.694q0-5.385-3.462-8.847-3.462-3.462-8.847-3.462H281.847l-58.383-58.384h541.842q29.596 0 50.145 20.548 20.548 20.549 20.548 50.145v541.842ZM532.231 529.769Zm-90.076 85.461Z"/></svg>